<svg xmlns="http://www.w3.org/2000/svg" viewBox="0 0 1200 650"><defs><linearGradient id="bg" x2="1" y2="1"><stop stop-color="#b7c1b6"/><stop offset="1" stop-color="#4d6356"/></linearGradient><linearGradient id="shell"><stop stop-color="#bdcdbb"/><stop offset=".5" stop-color="#839b86"/><stop offset="1" stop-color="#354e3d"/></linearGradient><linearGradient id="dark"><stop stop-color="#314339"/><stop offset="1" stop-color="#091810"/></linearGradient><filter id="shadow"><feGaussianBlur stdDeviation="22"/></filter></defs><rect width="1200" height="650" fill="url(#bg)"/><ellipse cx="690" cy="550" rx="360" ry="70" fill="#16271d" opacity=".5" filter="url(#shadow)"/><g transform="translate(610 310) rotate(-28)"><path d="M-230 50V-70C-230-330 230-330 230-70V50" fill="none" stroke="url(#dark)" stroke-width="100"/><path d="M-225-10V-70C-225-310 225-310 225-70V-10" fill="none" stroke="url(#shell)" stroke-width="65"/><rect x="-295" y="-45" width="165" height="270" rx="78" fill="url(#dark)"/><rect x="130" y="-45" width="165" height="270" rx="78" fill="url(#dark)"/><rect x="-315" y="-30" width="140" height="245" rx="68" fill="url(#shell)"/><rect x="175" y="-30" width="140" height="245" rx="68" fill="url(#shell)"/><ellipse cx="245" cy="90" rx="43" ry="68" fill="#a8baa5" opacity=".4"/><path d="M235 83h20m-10-10v20" stroke="#435e48" stroke-width="4"/><path d="M-266 173h38" stroke="#475e49" stroke-width="5" stroke-linecap="round"/></g></svg>
